<?xml version="1.0" encoding="UTF-8"?>
<svg id="Layer_2" data-name="Layer 2" xmlns="http://www.w3.org/2000/svg" viewBox="0 0 386 154.68">
  <defs>
    <style>
      .cls-1 {
        fill: none;
        stroke: #fff;
        stroke-miterlimit: 10;
        stroke-width: 4px;
      }

      .cls-2 {
        fill: #fff;
        stroke-width: 0px;
      }
    </style>
  </defs>
  <g id="Layer_2-2" data-name="Layer 2">
    <g>
      <path class="cls-2" d="M115.38,54.45c-2.24-8.71-5.94-17.28-18.34-17.28-10.29,0-13.85,7.52-13.85,14.38,0,9.1,5.8,13.72,16.75,19.39,15.83,8.18,22.69,14.25,22.69,26.78,0,13.85-12,24.4-29.02,24.4-7.91,0-14.77-2.24-20.18-4.35-1.06-3.69-2.64-12.66-3.56-19.79l4.09-1.06c2.64,8.84,8.44,20.32,22.16,20.32,9.5,0,15.3-6.6,15.3-15.17,0-10.16-5.41-14.25-17.02-20.58-13.85-7.52-21.63-13.85-21.63-26.12s9.76-22.82,27.17-22.82c7.39,0,14.64,1.98,17.41,2.51.53,4.75,1.06,10.03,2.11,18.6l-4.09.79Z"/>
      <path class="cls-2" d="M156.53,120.01c-2.24,1.19-4.35,1.71-5.67,1.71-8.44,0-12.93-5.14-12.93-15.7v-38.39h-9.1l-.53-1.58,3.56-3.83h6.07v-11.08c2.51-2.64,6.33-6.07,8.84-8.71l1.98.26c-.26,5.54-.4,13.19-.4,19.52h15.04c1.19,1.32.79,4.22-.79,5.41h-14.25v33.77c0,10.68,4.22,12.66,7.65,12.66,3.17,0,6.2-1.19,8.05-2.11l1.19,3.43-8.71,4.62Z"/>
      <path class="cls-2" d="M213.12,121.73c-1.98,0-4.88-1.05-6.2-2.51-1.71-1.71-2.51-3.56-3.17-5.94-5.28,3.56-11.74,8.44-15.83,8.44-9.37,0-16.09-7.78-16.09-16.22,0-6.46,3.56-10.69,10.82-13.19,8.05-2.77,17.94-6.2,20.84-8.57v-2.64c0-9.37-4.75-14.77-11.61-14.77-3.03,0-4.88,1.45-6.2,3.03-1.45,1.85-2.37,4.75-3.56,8.57-.66,2.11-1.85,3.03-3.83,3.03-2.51,0-5.8-2.64-5.8-5.8,0-1.85,1.71-3.43,4.35-5.28,3.83-2.77,11.48-7.65,19-9.23,3.96,0,8.05,1.19,11.08,3.56,4.62,3.96,6.73,8.44,6.73,15.3v25.46c0,6.07,2.24,7.92,4.62,7.92,1.58,0,3.3-.66,4.75-1.45l1.32,3.69-11.21,6.6ZM203.49,88.35c-2.9,1.45-9.23,4.22-12.27,5.54-5.01,2.24-8.05,4.75-8.05,9.63,0,6.99,5.28,10.16,9.5,10.16,3.43,0,8.18-2.11,10.82-4.75v-20.58Z"/>
      <path class="cls-2" d="M260.21,120.14h-30.34v-3.69c8.31-.79,9.1-1.45,9.1-10.03v-27.44c0-8.71-.53-9.1-8.18-10.03v-3.3c6.46-1.06,12.4-2.64,18.6-5.41v14.51c4.62-6.86,10.16-14.11,16.75-14.11,4.88,0,7.65,3.03,7.65,6.33,0,3.03-2.11,5.94-4.49,7.25-1.32.79-2.37.66-3.43-.26-1.98-1.98-3.56-3.3-5.94-3.3-2.77,0-7.65,4.09-10.55,10.82v24.8c0,8.71.66,9.37,10.82,10.16v3.69Z"/>
      <path class="cls-2" d="M307.43,120.01c-2.24,1.19-4.35,1.71-5.67,1.71-8.44,0-12.93-5.14-12.93-15.7v-38.39h-9.1l-.53-1.58,3.56-3.83h6.07v-11.08c2.51-2.64,6.33-6.07,8.84-8.71l1.98.26c-.26,5.54-.4,13.19-.4,19.52h15.04c1.19,1.32.79,4.22-.79,5.41h-14.25v33.77c0,10.68,4.22,12.66,7.65,12.66,3.17,0,6.2-1.19,8.05-2.11l1.19,3.43-8.71,4.62Z"/>
    </g>
    <rect class="cls-1" x="2" y="2" width="382" height="150.68" rx="71" ry="71"/>
  </g>
</svg>