<?xml version="1.0" encoding="UTF-8"?>
<svg id="Layer_2" data-name="Layer 2" xmlns="http://www.w3.org/2000/svg" viewBox="0 0 330.82 236.38">
  <defs>
    <style>
      .cls-1 {
        fill: #000;
        stroke-width: 0px;
      }
    </style>
  </defs>
  <g id="Layer_2-2" data-name="Layer 2">
    <g>
      <path class="cls-1" d="M44.59,37.88c22.56,0,42.74,17.28,42.74,43.53,0,28.36-19.26,46.04-43.53,46.04S0,108.19,0,83.39s16.75-45.51,44.59-45.51ZM41.95,42.77c-14.77,0-28.23,12.4-28.23,37.07s13.46,42.61,32.19,42.61c15.96,0,27.97-11.87,27.97-37.33,0-27.7-14.64-42.34-31.92-42.34Z"/>
      <path class="cls-1" d="M128.21,125.47h-30.34v-3.69c8.31-.79,9.1-1.45,9.1-10.03v-27.44c0-8.71-.53-9.1-8.18-10.03v-3.3c6.46-1.06,12.4-2.64,18.6-5.41v14.51c4.62-6.86,10.16-14.11,16.75-14.11,4.88,0,7.65,3.03,7.65,6.33,0,3.03-2.11,5.94-4.48,7.26-1.32.79-2.37.66-3.43-.26-1.98-1.98-3.56-3.3-5.94-3.3-2.77,0-7.65,4.09-10.55,10.82v24.8c0,8.71.66,9.37,10.82,10.16v3.69Z"/>
      <path class="cls-1" d="M164.09,106.22c-3.17,2.51-4.35,5.01-4.35,6.6,0,2.37,2.24,5.01,8.18,5.01,4.88,0,10.42-.13,14.77-.13,8.44,0,19.26,2.77,19.26,15.83,0,13.72-16.23,26.65-33.77,26.65-14.91,0-22.95-8.71-23.22-16.49,0-2.9,1.19-5.41,3.3-7.52,2.64-2.77,7.78-7.12,10.82-9.5-4.75-1.32-8.18-4.35-9.89-7.12-1.19-1.98-1.58-4.35-1.58-5.67,5.01-1.85,9.5-5.54,12.14-9.1l4.35,1.45ZM170.43,107.53c-12.27,0-22.43-7.52-22.43-19.92,0-15.04,13.46-22.03,23.74-22.03,4.35,0,8.71,1.19,12.66,3.3,6.07,0,13.98-1.06,17.68-1.98l.79,1.19c-.79,2.11-2.9,5.8-4.88,6.99-1.98,0-6.33-.53-8.18-.66,2.24,3.03,3.83,7.25,3.83,12,0,14.38-11.87,21.11-23.22,21.11ZM173.46,127.06c-6.46,0-9.37.79-11.74,2.77-3.69,3.03-6.33,6.99-6.33,10.82,0,7.25,7.52,12.66,17.68,12.66,12.53,0,19.66-6.46,19.66-14.91,0-4.49-2.11-8.05-5.8-9.63-3.3-1.45-7.91-1.71-13.46-1.71ZM170.43,69.81c-5.94,0-11.21,5.41-11.21,15.83s5.28,17.68,12.53,17.68c5.8-.26,10.95-5.14,10.95-15.83s-4.88-17.68-12.27-17.68Z"/>
      <path class="cls-1" d="M248.91,127.06c-1.98,0-4.88-1.06-6.2-2.51-1.71-1.71-2.51-3.56-3.17-5.94-5.28,3.56-11.74,8.44-15.83,8.44-9.37,0-16.09-7.78-16.09-16.23,0-6.46,3.56-10.69,10.82-13.19,8.05-2.77,17.94-6.2,20.84-8.57v-2.64c0-9.37-4.75-14.77-11.61-14.77-3.03,0-4.88,1.45-6.2,3.03-1.45,1.85-2.37,4.75-3.56,8.57-.66,2.11-1.85,3.03-3.83,3.03-2.51,0-5.8-2.64-5.8-5.8,0-1.85,1.71-3.43,4.35-5.28,3.83-2.77,11.48-7.65,19-9.23,3.96,0,8.05,1.19,11.08,3.56,4.62,3.96,6.73,8.44,6.73,15.3v25.46c0,6.07,2.24,7.91,4.62,7.91,1.58,0,3.3-.66,4.75-1.45l1.32,3.69-11.21,6.6ZM239.28,93.68c-2.9,1.45-9.23,4.22-12.27,5.54-5.01,2.24-8.05,4.75-8.05,9.63,0,6.99,5.28,10.16,9.5,10.16,3.43,0,8.18-2.11,10.82-4.75v-20.58Z"/>
      <path class="cls-1" d="M303.52,125.47v-3.69c7.65-.79,8.44-1.71,8.44-10.69v-21.77c0-9.23-3.3-15.43-12-15.43-5.41,0-10.55,3.17-14.64,6.86v30.87c0,9.1.79,9.37,8.57,10.16v3.69h-28.49v-3.69c8.71-.92,9.5-1.45,9.5-10.16v-27.17c0-8.57-.92-8.97-8.05-10.16v-3.43c6.46-1.06,12.93-2.77,18.47-5.28v10.42c2.64-1.85,5.54-3.83,8.97-6.07,3.69-2.37,7.12-3.96,10.95-3.96,10.55,0,17.15,7.78,17.15,20.58v25.06c0,8.97.79,9.37,8.44,10.16v3.69h-27.31Z"/>
    </g>
    <g>
      <path class="cls-1" d="M147.94,16.01c-.64-2.27-1.49-4.6-2.27-5.88-1.13-1.91-1.84-2.41-5.74-2.41h-7.08v34.5c0,5.53.57,6.31,7.3,6.73v1.98h-20.62v-1.98c6.59-.42,7.16-1.13,7.16-6.73V7.72h-6.45c-3.9,0-5.03.42-6.23,2.55-.85,1.42-1.42,3.12-2.34,5.74h-2.13c.42-4.32.85-8.79,1.06-12.75h1.63c1.06,1.7,1.84,1.63,3.83,1.63h28.06c1.98,0,2.55-.28,3.61-1.63h1.7c0,3.33.28,8.43.64,12.54l-2.12.21Z"/>
      <path class="cls-1" d="M173.8,50.94v-1.98c4.11-.42,4.68-.78,4.68-5.46v-11.62c0-5.88-2.27-8.86-7.01-8.79-2.69,0-5.53,1.35-7.51,3.68v16.72c0,4.6.57,5.03,4.82,5.46v1.98h-15.44v-1.98c4.11-.35,5.03-.71,5.03-5.46V9.35c0-3.75-.21-4.68-4.96-5.1v-1.84c3.75-.35,8.01-1.42,10.56-2.41v24.16c2.55-2.55,6.45-5.17,10.27-5.17,5.81,0,9.85,3.61,9.85,12.11v12.47c0,4.68.57,5.03,4.68,5.38v1.98h-14.95Z"/>
      <path class="cls-1" d="M218.5,44.92c-4.53,5.67-9.49,6.87-11.76,6.87-8.64,0-13.89-7.08-13.89-15.23,0-4.82,1.7-9.28,4.6-12.4,2.98-3.33,6.87-5.17,10.56-5.17,6.16,0,10.84,5.31,10.84,10.98-.07,1.42-.28,2.05-1.42,2.34-1.42.28-10.49.92-18.92,1.2-.21,9.49,5.6,13.39,10.63,13.39,2.9,0,5.6-1.2,8.22-3.61l1.13,1.63ZM206.31,21.68c-3.26,0-6.45,3.05-7.44,8.79,3.97,0,7.94,0,12.12-.21,1.28,0,1.7-.35,1.7-1.42.07-3.75-2.41-7.16-6.38-7.16Z"/>
    </g>
    <g>
      <path class="cls-1" d="M112.72,169.77c-1.19-4.22-2.77-8.57-4.22-10.95-2.11-3.56-3.43-4.49-10.68-4.49h-13.19v64.24c0,10.29,1.06,11.74,13.59,12.53v3.69h-38.39v-3.69c12.27-.79,13.32-2.11,13.32-12.53v-64.24h-12c-7.25,0-9.37.79-11.61,4.75-1.58,2.64-2.64,5.8-4.35,10.68h-3.96c.79-8.05,1.58-16.36,1.98-23.74h3.03c1.98,3.17,3.43,3.03,7.12,3.03h52.24c3.69,0,4.75-.53,6.73-3.03h3.17c0,6.2.53,15.7,1.19,23.35l-3.96.4Z"/>
      <path class="cls-1" d="M146.62,234.8h-30.34v-3.69c8.31-.79,9.1-1.45,9.1-10.03v-27.44c0-8.71-.53-9.1-8.18-10.03v-3.3c6.46-1.06,12.4-2.64,18.6-5.41v14.51c4.62-6.86,10.16-14.11,16.75-14.11,4.88,0,7.65,3.03,7.65,6.33,0,3.03-2.11,5.94-4.49,7.25-1.32.79-2.37.66-3.43-.26-1.98-1.98-3.56-3.3-5.94-3.3-2.77,0-7.65,4.09-10.55,10.82v24.8c0,8.71.66,9.37,10.82,10.16v3.69Z"/>
      <path class="cls-1" d="M207.69,236.38c-1.98,0-4.88-1.06-6.2-2.51-1.71-1.71-2.51-3.56-3.17-5.94-5.28,3.56-11.74,8.44-15.83,8.44-9.37,0-16.09-7.78-16.09-16.23,0-6.46,3.56-10.68,10.82-13.19,8.05-2.77,17.94-6.2,20.84-8.58v-2.64c0-9.37-4.75-14.77-11.61-14.77-3.03,0-4.88,1.45-6.2,3.03-1.45,1.85-2.37,4.75-3.56,8.57-.66,2.11-1.85,3.03-3.83,3.03-2.51,0-5.8-2.64-5.8-5.8,0-1.85,1.71-3.43,4.35-5.28,3.83-2.77,11.48-7.65,19-9.23,3.96,0,8.05,1.19,11.08,3.56,4.62,3.96,6.73,8.44,6.73,15.3v25.46c0,6.07,2.24,7.92,4.62,7.92,1.58,0,3.3-.66,4.75-1.45l1.32,3.69-11.21,6.6ZM198.06,203.01c-2.9,1.45-9.23,4.22-12.27,5.54-5.01,2.24-8.05,4.75-8.05,9.63,0,6.99,5.28,10.16,9.5,10.16,3.43,0,8.18-2.11,10.82-4.75v-20.58Z"/>
      <path class="cls-1" d="M224.31,234.8v-3.69c8.31-.79,9.23-1.45,9.23-10.42v-27.17c0-8.18-.4-8.71-8.31-10.03v-3.17c6.86-1.19,13.06-2.9,18.73-5.28v45.64c0,8.97.92,9.63,9.5,10.42v3.69h-29.15ZM238.03,162.12c-3.69,0-6.99-3.3-6.99-6.99,0-4.22,3.3-7.26,7.12-7.26s6.73,3.04,6.73,7.26c0,3.69-3.03,6.99-6.86,6.99Z"/>
      <path class="cls-1" d="M259,234.8v-3.69c8.44-.79,9.5-1.45,9.5-10.16v-63.19c0-8.05-.66-8.84-9.1-9.89v-3.43c7.12-.79,15.3-2.9,19.52-4.48v80.99c0,8.71.79,9.37,9.37,10.16v3.69h-29.29Z"/>
    </g>
  </g>
</svg>